<?xml version="1.0" encoding="utf-8"?>
<!-- Generator: Adobe Illustrator 22.1.0, SVG Export Plug-In . SVG Version: 6.00 Build 0)  -->
<svg version="1.1" id="bookSvg" xmlns="http://www.w3.org/2000/svg" xmlns:xlink="http://www.w3.org/1999/xlink" x="0px" y="0px"
	 viewBox="0 0 90 85.6" style="enable-background:new 0 0 90 85.6;" xml:space="preserve">
<style type="text/css">
	.st0{fill:#0F3C64;}
	.st1{fill:#C61F48;}
</style>
<title  id="book-title" lang="en">Icon of books</title>
<path class="st0" d="M85.2,38.6c-0.1-0.5-0.5-0.8-0.9-0.9l-0.5-0.1v-8.3l0.9-0.8c0.3-0.3,0.5-0.8,0.4-1.3c-0.1-0.5-0.5-0.8-0.9-0.9
	l-5-1v-7v-0.1l0.9-0.9c0.3-0.3,0.5-0.8,0.4-1.3c-0.1-0.5-0.5-0.8-0.9-0.9L39.3,7.1c-0.3-0.1-0.6,0-0.9,0.2L7.4,31
	c-0.6,0.4-2.7,2-2.7,6.4c0,4.9,2.7,7.1,2.8,7.2c0,0,0,0,0,0c0,0,0.1,0,0.1,0.1c0,0,0.1,0,0.1,0.1c0,0,0.1,0,0.1,0c0,0,0.1,0,0.1,0
	c0,0,0,0,0.1,0l1.8,0.4c-0.3,0.9-0.5,2-0.5,3.4c0,2.4,0.7,4.2,1.4,5.3L9.2,55c-0.6,0.4-2.7,2-2.7,6.4c0,4.9,2.7,7.1,2.8,7.2
	c0.1,0.1,0.3,0.2,0.5,0.2l42.1,9.6c0,0,0,0,0,0l1.5,0.3c0.1,0,0.2,0,0.2,0c0.3,0,0.5-0.1,0.8-0.3L82,52.8c0.3-0.3,0.5-0.8,0.4-1.3
	c-0.1-0.5-0.5-0.8-0.9-0.9L81,50.4v-7l3.8-3.5C85.1,39.6,85.3,39.1,85.2,38.6z M51.6,43.4c0.3,0,0.6-0.1,0.8-0.3l24.4-22.7v8.2
	L51.4,52.1v-8.8C51.4,43.3,51.5,43.4,51.6,43.4z M9.2,33.7L49,42.8v8.8L9.2,42.5V33.7z M11.1,66.5v-8.8l39.8,9.1v8.8L11.1,66.5z
	 M13.8,53.7v-7.5L50,54.4c0,0,0,0,0,0l1.5,0.3c0.1,0,0.2,0,0.2,0c0.3,0,0.6-0.1,0.8-0.3l0.7-0.6l0.4,0.1v8.8L13.8,53.7z M78.6,52.5
	L53.2,76.2l0-8.8c0.1,0,0.1,0,0.2,0c0.3,0,0.6-0.1,0.8-0.3l1.3-1.3l0.6,0.1c0.1,0,0.2,0,0.2,0c0.3,0,0.6-0.1,0.8-0.3l21.5-20.1
	L78.6,52.5L78.6,52.5z M81.4,39.7L56,63.3l0-8.8c0.1,0,0.1,0,0.2,0c0.3,0,0.6-0.1,0.8-0.3l24.4-22.8L81.4,39.7L81.4,39.7z"/>
<path class="st1" d="M36.8,13.9L21,23.8l2.2,0.4l4.1-2.6l2.7,0.5l-2.7,2.9l2.3,0.5l10-11.2L36.8,13.9z M34,18l-2.2,2.4l-2.1-0.4
	l3.3-2.1c0.9-0.6,2-1.3,2.9-1.9l0,0C35.3,16.5,34.6,17.3,34,18z"/>
<polygon class="st1" points="43.8,15.1 46,15.5 35.5,24.2 39.4,24.9 36.9,27 30.8,25.8 "/>
<polygon class="st1" points="53.4,16.8 40.5,27.7 38.2,27.3 51.2,16.4 "/>
<path class="st1" d="M44.8,28.6L54.5,17l2.5,0.4l-4.2,4.8c-1.2,1.4-2.4,2.7-3.7,4.1l0,0c1.8-1.3,3.7-2.6,5.5-3.8l6.7-4.4l2.5,0.4
	L47.5,29.1L44.8,28.6z"/>
<polygon class="st1" points="63.7,26.4 59.9,25.7 56.8,28.4 61.1,29.2 58.7,31.4 52,30 64.9,18.8 71.3,20 69,22 64.9,21.3 
	62.3,23.6 66.1,24.3 "/>
</svg>
