<?xml version="1.0" encoding="utf-8"?>
<!-- Generator: Adobe Illustrator 22.1.0, SVG Export Plug-In . SVG Version: 6.00 Build 0)  -->
<svg version="1.1" id="chatBublesSvg" xmlns="http://www.w3.org/2000/svg" xmlns:xlink="http://www.w3.org/1999/xlink" x="0px"
	 y="0px" viewBox="0 0 90 65.2" style="enable-background:new 0 0 90 65.2;" xml:space="preserve">
<style type="text/css">
	.st0{fill:#0F3C64;}
</style>
<g>
	<path class="st0" d="M19.5,28.7v11.9h-2.3v-5.1h-4.1v5.1h-2.3V28.7h2.3v4.7h4.1v-4.7H19.5z"/>
	<path class="st0" d="M23.5,37c0.1,1.5,1.1,2.1,2.4,2.1c0.9,0,1.5-0.2,2.1-0.4l0.3,1.6c-0.7,0.3-1.7,0.5-2.8,0.5
		c-2.7,0-4.2-1.7-4.2-4.3c0-2.5,1.4-4.6,3.9-4.6c2.1,0,3.4,1.5,3.4,4.3c0,0.3,0,0.7-0.1,0.9L23.5,37L23.5,37z M26.5,35.4
		c0-0.9-0.3-2-1.5-2c-1.1,0-1.6,1.1-1.6,2H26.5z"/>
	<path class="st0" d="M32.5,28.2v12.4h-2.3V28.2H32.5z"/>
</g>
<title  id="chat-title" lang="en">Icon of chat bubbles</title>
<path class="st0" d="M79,6.6H41.1c-4.1,0-7.5,3.3-7.5,7.5v2.7H10.3c-4.1,0-7.5,3.3-7.5,7.5v23.6c0,4,3.1,7.2,7,7.4
	c-0.4,0.9-0.4,2,0.1,2.9c0.6,1.1,1.7,1.8,2.9,1.8c0.1,0,0.2,0,0.3,0c1.4-0.1,3.5-0.6,5.3-1.7c1.5-0.8,2.8-1.9,3.7-3h26
	c4.1,0,7.5-3.3,7.5-7.5v-2.7h11.5c0.9,1,2.2,2.1,3.7,3c1.8,1,4,1.5,5.3,1.7c0.1,0,0.2,0,0.3,0c1.2,0,2.3-0.7,2.9-1.8
	c0.5-0.9,0.5-2,0.1-2.9c3.9-0.2,7-3.5,7-7.4V14.1C86.4,10,83.1,6.6,79,6.6z M48.2,52.1H20.7c-0.7,1-2,2.4-3.8,3.4
	c-1.4,0.8-3.1,1.2-4.1,1.3c1.4-1.7,1.7-3.3,1.7-4.4c0-0.1,0-0.2,0-0.2h-4.2c-2.3,0-4.2-1.9-4.2-4.2V24.3c0-2.3,1.9-4.2,4.2-4.2h23.3
	l0.1,0.1v17.5c-0.1,4.1,3.2,7.5,7.4,7.5h11.2l0.1,2.7C52.4,50.2,50.5,52.1,48.2,52.1z M83.2,37.7c0,2.3-1.9,4.2-4.2,4.2h-4.2
	c0,0.1,0,0.2,0,0.2c0,1.1,0.2,2.7,1.7,4.4c-0.9-0.1-2.6-0.5-4.1-1.3c-1.7-0.9-3-2.4-3.8-3.4H40.2c-1.9-0.4-3.3-2.1-3.3-4.1V17.3
	v-3.2c0-2.3,1.9-4.2,4.2-4.2H79c2.3,0,4.2,1.9,4.2,4.2V37.7z"/>
<g>
	<path class="st0" d="M45.8,25.5c0,2.2-0.8,3.6-2.4,3.6c-1.7,0-2.4-1.4-2.4-3.6s0.8-3.6,2.4-3.6C45.1,21.9,45.8,23.3,45.8,25.5z
		 M42.4,25.5c0,1.7,0.3,2.4,1,2.4s1-0.7,1-2.4c0-1.6-0.3-2.4-1-2.4S42.4,23.9,42.4,25.5z M48.6,21.4c0.6,0,0.7,0,0.7,0.2
		s-0.1,0.3-0.1,0.6v8.5h-1.4v-3.2h-1.5v-1.2h1.5v-1.4h-1.5v-1.2h1.5v-2.2L48.6,21.4L48.6,21.4z"/>
	<path class="st0" d="M58.1,22c0.6,0,0.7,0,0.7,0.2c0,0.1-0.1,0.2-0.1,0.4v4.2h-2.9c0,0.1-0.1,0.3-0.1,0.6v1h4v1.2h-9.2v-1.2h3.8
		v-1.6h-2.8V22h0.8c0.5,0,0.7,0,0.7,0.1s-0.1,0.2-0.1,0.4v0.8h4.4V22H58.1z M52.9,24.4v1.2h4.4v-1.2H52.9z"/>
	<path class="st0" d="M63.1,22c0.5,0,0.6,0,0.6,0.1s-0.2,0.3-0.2,0.5c0,0.4,0,0.8,0,1.2c0,2.1,0.8,3.4,1.9,4.1
		c-0.3,0.3-0.6,0.7-0.9,1.1c-0.9-0.6-1.4-1.7-1.7-2.5c-0.2,0.8-0.9,2.2-1.7,2.8c-0.2-0.3-0.6-0.7-0.9-0.9c1.2-0.9,2.2-2.5,2.1-6.4
		C62.3,22,63.1,22,63.1,22z M66.7,21.5c0.5,0,0.7,0,0.7,0.2c0,0.1-0.1,0.3-0.1,0.6v8.2H66v-4.6h-1.2v-1.2H66v-3.1L66.7,21.5
		L66.7,21.5z M68.6,21.4c0.5,0,0.6,0,0.6,0.1s-0.1,0.3-0.1,0.5v8.5h-1.4v-9.2h0.9V21.4z"/>
	<path class="st0" d="M73.3,26.6c0.6,0,0.7,0,0.7,0.2c0,0.1-0.1,0.2-0.1,0.4v1.1h1.7v-1.7h0.9c0.5,0,0.6,0,0.6,0.1S77,26.9,77,27.1
		v1.2h2.4v1.2h-9.2v-1.2h2.4v-1.7H73.3z M78.6,24.1c0,1.3-1.2,2.4-3.8,2.4c-2.7,0-3.9-1.2-3.9-2.4c0-1.2,1.2-2.3,3.8-2.3
		C77.4,21.8,78.6,22.8,78.6,24.1z M72.3,24.1c0,0.8,0.7,1.3,2.4,1.3c1.7,0,2.4-0.5,2.4-1.3s-0.7-1.2-2.4-1.2
		C73.1,23,72.3,23.4,72.3,24.1z"/>
</g>
</svg>
